<svg height="512pt" viewBox="0 -47 512 512" width="512pt" xmlns="http://www.w3.org/2000/svg"><path d="m119.824219 417.3125 17.882812-89.425781h74.226563v-59.613281h121.21875v-208.65625h-121.21875v-14.90625c0-8.21875 6.683594-14.902344 14.902344-14.902344v-29.808594h-119.230469c-36.753907 0-67.359375 26.753906-73.414063 61.804688-17.921875 5.828124-30.914062 22.683593-30.914062 42.523437v163.945313h26.53125l-29.808594 149.039062zm-83.464844-29.808594 23.847656-119.230468h59.023438l-23.84375 119.230468zm145.765625-89.421875h-38.457031l5.960937-29.808593h32.496094zm-149.042969-59.617187v-89.425782h270.261719v89.425782zm74.523438-208.667969h77.074219c-1.65625 4.664063-2.554688 9.691406-2.554688 14.914063v14.90625h-116.667969c6.152344-17.347657 22.71875-29.820313 42.148438-29.820313zm-59.617188 59.628906h255.355469v29.804688h-270.261719v-14.902344c0-8.21875 6.6875-14.902344 14.90625-14.902344zm0 0"/><path d="m452.976562 38.058594-19.101562 22.882812c30.707031 25.632813 48.316406 63.175782 48.316406 103.003906 0 39.828126-17.609375 77.371094-48.316406 103l19.101562 22.886719c37.511719-31.3125 59.023438-77.195312 59.023438-125.886719 0-48.691406-21.511719-94.574218-59.023438-125.886718zm0 0"/><path d="m395.730469 221.171875 19.101562 22.882813c23.863281-19.921876 37.550781-49.117188 37.550781-80.109376 0-30.992187-13.6875-60.191406-37.550781-80.113281l-19.101562 22.886719c17.058593 14.238281 26.84375 35.097656 26.84375 57.226562 0 22.128907-9.785157 42.984376-26.84375 57.226563zm0 0"/><path d="m357.59375 175.398438 19.09375 22.890624c10.21875-8.523437 16.082031-21.042968 16.082031-34.34375 0-13.300781-5.863281-25.820312-16.082031-34.34375l-19.09375 22.890626c3.410156 2.84375 5.367188 7.019531 5.367188 11.453124 0 4.433594-1.957032 8.609376-5.367188 11.453126zm0 0"/></svg>