<?xml version="1.0" encoding="iso-8859-1"?>
<!-- Generator: Adobe Illustrator 19.0.0, SVG Export Plug-In . SVG Version: 6.00 Build 0)  -->
<svg version="1.1" id="Layer_1" xmlns="http://www.w3.org/2000/svg" xmlns:xlink="http://www.w3.org/1999/xlink" x="0px" y="0px"
	 viewBox="0 0 512 512" style="enable-background:new 0 0 512 512;" xml:space="preserve">
<g>
	<g>
		<path d="M501.342,383.894L320.515,51.477C291.38,2.445,220.55,2.684,191.591,51.457L10.634,383.935
			c-29.686,49.998,6.29,113.276,64.481,113.276h361.77C495.002,497.21,531.1,434.01,501.342,383.894z M436.885,467.214H75.115
			c-34.959,0-56.467-38.021-38.714-67.922L217.359,66.814c17.426-29.349,59.926-29.389,77.377,0c0.008,0.013,0.016,0.026,0.023,0.04
			l180.814,332.395C493.386,429.248,471.8,467.214,436.885,467.214z"/>
	</g>
</g>
<g>
	<g>
		<path d="M145.333,306.392c-7.122-4.272-16.372-1.941-20.613,5.203L63.585,414.563c-5.925,9.981,1.282,22.655,12.896,22.655
			h119.575c8.283,0,14.998-6.715,14.998-14.998C211.054,374.73,186.07,330.835,145.333,306.392z M102.828,407.222l39.432-66.414
			c20.357,16.643,33.892,40.484,37.7,66.414H102.828z"/>
	</g>
</g>
<g>
	<g>
		<path d="M211.053,197.248c-16.54,0-29.996,13.456-29.996,29.996c0,16.54,13.456,29.996,29.996,29.996s29.996-13.456,29.996-29.996
			C241.049,210.705,227.593,197.248,211.053,197.248z"/>
	</g>
</g>
<g>
	<g>
		<path d="M386.591,411.615l-55.599-55.599v-53.775c0.002-3.769-1.502-7.72-4.395-10.613l-34.387-34.387h38.782v14.998
			c0,8.283,6.715,14.998,14.998,14.998s14.998-6.715,14.998-14.998v-29.996c0-8.283-6.715-14.998-14.998-14.998h-89.989
			c-6.862-0.001-12.45,4.508-14.327,10.549l-29.898,89.695c-2.62,7.858,1.628,16.352,9.486,18.972
			c7.86,2.62,16.352-1.628,18.972-9.486l22.322-66.966l32.227,32.227l-49.387,49.388c-2.813,2.813-4.393,6.627-4.393,10.605v59.992
			c0,8.283,6.715,14.998,14.998,14.998c8.283,0,14.998-6.715,14.998-14.998v-53.78l29.996-29.996v23.784
			c0,3.977,1.58,7.792,4.393,10.606l59.992,59.992c5.856,5.856,15.353,5.857,21.21,0
			C392.448,426.968,392.448,417.472,386.591,411.615z"/>
	</g>
</g>
<g>
</g>
<g>
</g>
<g>
</g>
<g>
</g>
<g>
</g>
<g>
</g>
<g>
</g>
<g>
</g>
<g>
</g>
<g>
</g>
<g>
</g>
<g>
</g>
<g>
</g>
<g>
</g>
<g>
</g>
</svg>
